<svg width="58" height="58" viewBox="0 0 58 58" fill="none" xmlns="http://www.w3.org/2000/svg">
<path d="M48.3973 55.0255C50.5936 55.0255 52.3742 53.2449 52.3742 51.0486C52.3742 48.8523 50.5936 47.0717 48.3973 47.0717C46.201 47.0717 44.4204 48.8523 44.4204 51.0486C44.4204 53.2449 46.201 55.0255 48.3973 55.0255Z" stroke="black" stroke-width="3.97692" stroke-linecap="round" stroke-linejoin="round"/>
<path d="M21.8846 55.0255C24.0809 55.0255 25.8615 53.2449 25.8615 51.0486C25.8615 48.8523 24.0809 47.0717 21.8846 47.0717C19.6882 47.0717 17.9077 48.8523 17.9077 51.0486C17.9077 53.2449 19.6882 55.0255 21.8846 55.0255Z" stroke="black" stroke-width="3.97692" stroke-linecap="round" stroke-linejoin="round"/>
<path d="M9.95383 7.30255H55.0255L49.723 36.4666H15.2564L9.95383 7.30255ZM9.95383 7.30255C9.51194 5.53503 7.30255 2 2 2" stroke="black" stroke-width="3.97692" stroke-linecap="round" stroke-linejoin="round"/>
<path d="M49.723 36.4666H15.2564H10.5657C5.83501 36.4666 3.32568 38.5377 3.32568 41.7691C3.32568 45.0005 5.83501 47.0717 10.5657 47.0717H48.3974" stroke="black" stroke-width="3.97692" stroke-linecap="round" stroke-linejoin="round"/>
</svg>
