<svg width="22" height="22" viewBox="0 0 22 22" fill="none" xmlns="http://www.w3.org/2000/svg">
<path d="M19.361 11.0655C19.887 6.01805 16.2058 1.48037 11.1584 0.954368C6.1109 0.428369 1.57322 4.10955 1.04722 9.15701C0.521221 14.2045 4.20241 18.7421 9.24986 19.2681C14.2973 19.7941 18.835 16.113 19.361 11.0655ZM2.38725 9.29666C2.83691 4.98175 6.71274 1.84567 11.0187 2.2944C15.3247 2.74313 18.4706 6.61095 18.021 10.9259C17.5713 15.2408 13.6955 18.3768 9.38951 17.9281C5.08354 17.4794 1.93759 13.6116 2.38725 9.29666Z" fill="#0B0B0B"/>
<path d="M19.2767 20.5393C19.2944 20.3695 19.2495 20.1933 19.1295 20.0453L17.529 18.0724C17.2969 17.7863 16.8681 17.7416 16.582 17.9737C16.2959 18.2058 16.2513 18.6346 16.4833 18.9207L18.0838 20.8936C18.3159 21.1796 18.7447 21.2243 19.0308 20.9923C19.1788 20.8722 19.259 20.709 19.2767 20.5393Z" fill="#0B0B0B"/>
</svg>
